<?xml version="1.0" encoding="UTF-8"?>
<svg xmlns="http://www.w3.org/2000/svg" width="420" height="348" viewBox="0 0 420 348">
  <rect width="100%" height="100%" fill="#F7F1E8"/>
  
    <text x="24" y="28" font-family="ui-sans-serif,system-ui" font-size="18" font-weight="600" fill="#3F0B2F">recent-scans</text>
    <text x="24" y="44" font-family="ui-sans-serif,system-ui" font-size="11" fill="#6B6258">vector evidence · not shipped in app bundle</text>
  <text x="24" y="48" font-family="ui-sans-serif,system-ui" font-size="12" fill="#3F0B2F">cream</text>
      <g transform="translate(24 56)">
        <rect width="36" height="48" rx="8" fill="#F7F1E8" stroke="#E8E0D5"/>
        <svg x="8" y="8" width="20" height="20" viewBox="0 0 24 24">
          
      <path d="M8 3.5 H17.5 Q19 3.5 19 5 V14.5" fill="none" stroke="#3F0B2F" stroke-width="2" stroke-linecap="round"/>
      <path d="M6.5 4.5 H16.8 Q18.2 4.5 18.2 5.9 V15.2" fill="none" stroke="#3F0B2F" stroke-width="2" stroke-linecap="round"/>
      <path d="M4 6.5 H14.5 Q16.2 6.5 16.2 8.2 V18.5 Q16.2 20.2 14.5 20.2 H4 Q2.3 20.2 2.3 18.5 V8.2 Q2.3 6.5 4 6.5 Z" fill="none" stroke="#3F0B2F" stroke-width="2" stroke-linejoin="round"/>
      <path d="M7.2 10.4 L9.2 9.5 L11.2 10.4 V12.2 H7.2 Z M7.2 12.2 L6.3 17.2 H12.1 L11.2 12.2" fill="none" stroke="#3F0B2F" stroke-width="2" stroke-linejoin="round"/>
    
          
      <circle cx="18" cy="18" r="4" fill="none" stroke="#B08D4B" stroke-width="2"/>
      <line x1="18" y1="18" x2="18" y2="15.6" stroke="#B08D4B" stroke-width="1.6" stroke-linecap="round"/>
      <line x1="18" y1="18" x2="19.8" y2="19.2" stroke="#B08D4B" stroke-width="1.6" stroke-linecap="round"/>
    
        </svg>
        <text x="18" y="42" text-anchor="middle" font-family="ui-sans-serif,system-ui" font-size="10" fill="#6B6258">20</text>
      </g>
      <g transform="translate(96 56)">
        <rect width="40" height="52" rx="8" fill="#F7F1E8" stroke="#E8E0D5"/>
        <svg x="8" y="8" width="24" height="24" viewBox="0 0 24 24">
          
      <path d="M8 3.5 H17.5 Q19 3.5 19 5 V14.5" fill="none" stroke="#3F0B2F" stroke-width="2" stroke-linecap="round"/>
      <path d="M6.5 4.5 H16.8 Q18.2 4.5 18.2 5.9 V15.2" fill="none" stroke="#3F0B2F" stroke-width="2" stroke-linecap="round"/>
      <path d="M4 6.5 H14.5 Q16.2 6.5 16.2 8.2 V18.5 Q16.2 20.2 14.5 20.2 H4 Q2.3 20.2 2.3 18.5 V8.2 Q2.3 6.5 4 6.5 Z" fill="none" stroke="#3F0B2F" stroke-width="2" stroke-linejoin="round"/>
      <path d="M7.2 10.4 L9.2 9.5 L11.2 10.4 V12.2 H7.2 Z M7.2 12.2 L6.3 17.2 H12.1 L11.2 12.2" fill="none" stroke="#3F0B2F" stroke-width="2" stroke-linejoin="round"/>
    
          
      <circle cx="18" cy="18" r="4" fill="none" stroke="#B08D4B" stroke-width="2"/>
      <line x1="18" y1="18" x2="18" y2="15.6" stroke="#B08D4B" stroke-width="1.6" stroke-linecap="round"/>
      <line x1="18" y1="18" x2="19.8" y2="19.2" stroke="#B08D4B" stroke-width="1.6" stroke-linecap="round"/>
    
        </svg>
        <text x="20" y="46" text-anchor="middle" font-family="ui-sans-serif,system-ui" font-size="10" fill="#6B6258">24</text>
      </g>
      <g transform="translate(168 56)">
        <rect width="44" height="56" rx="8" fill="#F7F1E8" stroke="#E8E0D5"/>
        <svg x="8" y="8" width="28" height="28" viewBox="0 0 24 24">
          
      <path d="M8 3.5 H17.5 Q19 3.5 19 5 V14.5" fill="none" stroke="#3F0B2F" stroke-width="2" stroke-linecap="round"/>
      <path d="M6.5 4.5 H16.8 Q18.2 4.5 18.2 5.9 V15.2" fill="none" stroke="#3F0B2F" stroke-width="2" stroke-linecap="round"/>
      <path d="M4 6.5 H14.5 Q16.2 6.5 16.2 8.2 V18.5 Q16.2 20.2 14.5 20.2 H4 Q2.3 20.2 2.3 18.5 V8.2 Q2.3 6.5 4 6.5 Z" fill="none" stroke="#3F0B2F" stroke-width="2" stroke-linejoin="round"/>
      <path d="M7.2 10.4 L9.2 9.5 L11.2 10.4 V12.2 H7.2 Z M7.2 12.2 L6.3 17.2 H12.1 L11.2 12.2" fill="none" stroke="#3F0B2F" stroke-width="2" stroke-linejoin="round"/>
    
          
      <circle cx="18" cy="18" r="4" fill="none" stroke="#B08D4B" stroke-width="2"/>
      <line x1="18" y1="18" x2="18" y2="15.6" stroke="#B08D4B" stroke-width="1.6" stroke-linecap="round"/>
      <line x1="18" y1="18" x2="19.8" y2="19.2" stroke="#B08D4B" stroke-width="1.6" stroke-linecap="round"/>
    
        </svg>
        <text x="22" y="50" text-anchor="middle" font-family="ui-sans-serif,system-ui" font-size="10" fill="#6B6258">28</text>
      </g>
      <g transform="translate(240 56)">
        <rect width="48" height="60" rx="8" fill="#F7F1E8" stroke="#E8E0D5"/>
        <svg x="8" y="8" width="32" height="32" viewBox="0 0 24 24">
          
      <path d="M8 3.5 H17.5 Q19 3.5 19 5 V14.5" fill="none" stroke="#3F0B2F" stroke-width="2" stroke-linecap="round"/>
      <path d="M6.5 4.5 H16.8 Q18.2 4.5 18.2 5.9 V15.2" fill="none" stroke="#3F0B2F" stroke-width="2" stroke-linecap="round"/>
      <path d="M4 6.5 H14.5 Q16.2 6.5 16.2 8.2 V18.5 Q16.2 20.2 14.5 20.2 H4 Q2.3 20.2 2.3 18.5 V8.2 Q2.3 6.5 4 6.5 Z" fill="none" stroke="#3F0B2F" stroke-width="2" stroke-linejoin="round"/>
      <path d="M7.2 10.4 L9.2 9.5 L11.2 10.4 V12.2 H7.2 Z M7.2 12.2 L6.3 17.2 H12.1 L11.2 12.2" fill="none" stroke="#3F0B2F" stroke-width="2" stroke-linejoin="round"/>
    
          
      <circle cx="18" cy="18" r="4" fill="none" stroke="#B08D4B" stroke-width="2"/>
      <line x1="18" y1="18" x2="18" y2="15.6" stroke="#B08D4B" stroke-width="1.6" stroke-linecap="round"/>
      <line x1="18" y1="18" x2="19.8" y2="19.2" stroke="#B08D4B" stroke-width="1.6" stroke-linecap="round"/>
    
        </svg>
        <text x="24" y="54" text-anchor="middle" font-family="ui-sans-serif,system-ui" font-size="10" fill="#6B6258">32</text>
      </g>
      <g transform="translate(312 56)">
        <rect width="64" height="76" rx="8" fill="#F7F1E8" stroke="#E8E0D5"/>
        <svg x="8" y="8" width="48" height="48" viewBox="0 0 24 24">
          
      <path d="M8 3.5 H17.5 Q19 3.5 19 5 V14.5" fill="none" stroke="#3F0B2F" stroke-width="2" stroke-linecap="round"/>
      <path d="M6.5 4.5 H16.8 Q18.2 4.5 18.2 5.9 V15.2" fill="none" stroke="#3F0B2F" stroke-width="2" stroke-linecap="round"/>
      <path d="M4 6.5 H14.5 Q16.2 6.5 16.2 8.2 V18.5 Q16.2 20.2 14.5 20.2 H4 Q2.3 20.2 2.3 18.5 V8.2 Q2.3 6.5 4 6.5 Z" fill="none" stroke="#3F0B2F" stroke-width="2" stroke-linejoin="round"/>
      <path d="M7.2 10.4 L9.2 9.5 L11.2 10.4 V12.2 H7.2 Z M7.2 12.2 L6.3 17.2 H12.1 L11.2 12.2" fill="none" stroke="#3F0B2F" stroke-width="2" stroke-linejoin="round"/>
    
          
      <circle cx="18" cy="18" r="4" fill="none" stroke="#B08D4B" stroke-width="2"/>
      <line x1="18" y1="18" x2="18" y2="15.6" stroke="#B08D4B" stroke-width="1.6" stroke-linecap="round"/>
      <line x1="18" y1="18" x2="19.8" y2="19.2" stroke="#B08D4B" stroke-width="1.6" stroke-linecap="round"/>
    
        </svg>
        <text x="32" y="70" text-anchor="middle" font-family="ui-sans-serif,system-ui" font-size="10" fill="#6B6258">48</text>
      </g><text x="24" y="140" font-family="ui-sans-serif,system-ui" font-size="12" fill="#3F0B2F">white</text>
      <g transform="translate(24 148)">
        <rect width="36" height="48" rx="8" fill="#FDFBF8" stroke="#E8E0D5"/>
        <svg x="8" y="8" width="20" height="20" viewBox="0 0 24 24">
          
      <path d="M8 3.5 H17.5 Q19 3.5 19 5 V14.5" fill="none" stroke="#3F0B2F" stroke-width="2" stroke-linecap="round"/>
      <path d="M6.5 4.5 H16.8 Q18.2 4.5 18.2 5.9 V15.2" fill="none" stroke="#3F0B2F" stroke-width="2" stroke-linecap="round"/>
      <path d="M4 6.5 H14.5 Q16.2 6.5 16.2 8.2 V18.5 Q16.2 20.2 14.5 20.2 H4 Q2.3 20.2 2.3 18.5 V8.2 Q2.3 6.5 4 6.5 Z" fill="none" stroke="#3F0B2F" stroke-width="2" stroke-linejoin="round"/>
      <path d="M7.2 10.4 L9.2 9.5 L11.2 10.4 V12.2 H7.2 Z M7.2 12.2 L6.3 17.2 H12.1 L11.2 12.2" fill="none" stroke="#3F0B2F" stroke-width="2" stroke-linejoin="round"/>
    
          
      <circle cx="18" cy="18" r="4" fill="none" stroke="#B08D4B" stroke-width="2"/>
      <line x1="18" y1="18" x2="18" y2="15.6" stroke="#B08D4B" stroke-width="1.6" stroke-linecap="round"/>
      <line x1="18" y1="18" x2="19.8" y2="19.2" stroke="#B08D4B" stroke-width="1.6" stroke-linecap="round"/>
    
        </svg>
        <text x="18" y="42" text-anchor="middle" font-family="ui-sans-serif,system-ui" font-size="10" fill="#6B6258">20</text>
      </g>
      <g transform="translate(96 148)">
        <rect width="40" height="52" rx="8" fill="#FDFBF8" stroke="#E8E0D5"/>
        <svg x="8" y="8" width="24" height="24" viewBox="0 0 24 24">
          
      <path d="M8 3.5 H17.5 Q19 3.5 19 5 V14.5" fill="none" stroke="#3F0B2F" stroke-width="2" stroke-linecap="round"/>
      <path d="M6.5 4.5 H16.8 Q18.2 4.5 18.2 5.9 V15.2" fill="none" stroke="#3F0B2F" stroke-width="2" stroke-linecap="round"/>
      <path d="M4 6.5 H14.5 Q16.2 6.5 16.2 8.2 V18.5 Q16.2 20.2 14.5 20.2 H4 Q2.3 20.2 2.3 18.5 V8.2 Q2.3 6.5 4 6.5 Z" fill="none" stroke="#3F0B2F" stroke-width="2" stroke-linejoin="round"/>
      <path d="M7.2 10.4 L9.2 9.5 L11.2 10.4 V12.2 H7.2 Z M7.2 12.2 L6.3 17.2 H12.1 L11.2 12.2" fill="none" stroke="#3F0B2F" stroke-width="2" stroke-linejoin="round"/>
    
          
      <circle cx="18" cy="18" r="4" fill="none" stroke="#B08D4B" stroke-width="2"/>
      <line x1="18" y1="18" x2="18" y2="15.6" stroke="#B08D4B" stroke-width="1.6" stroke-linecap="round"/>
      <line x1="18" y1="18" x2="19.8" y2="19.2" stroke="#B08D4B" stroke-width="1.6" stroke-linecap="round"/>
    
        </svg>
        <text x="20" y="46" text-anchor="middle" font-family="ui-sans-serif,system-ui" font-size="10" fill="#6B6258">24</text>
      </g>
      <g transform="translate(168 148)">
        <rect width="44" height="56" rx="8" fill="#FDFBF8" stroke="#E8E0D5"/>
        <svg x="8" y="8" width="28" height="28" viewBox="0 0 24 24">
          
      <path d="M8 3.5 H17.5 Q19 3.5 19 5 V14.5" fill="none" stroke="#3F0B2F" stroke-width="2" stroke-linecap="round"/>
      <path d="M6.5 4.5 H16.8 Q18.2 4.5 18.2 5.9 V15.2" fill="none" stroke="#3F0B2F" stroke-width="2" stroke-linecap="round"/>
      <path d="M4 6.5 H14.5 Q16.2 6.5 16.2 8.2 V18.5 Q16.2 20.2 14.5 20.2 H4 Q2.3 20.2 2.3 18.5 V8.2 Q2.3 6.5 4 6.5 Z" fill="none" stroke="#3F0B2F" stroke-width="2" stroke-linejoin="round"/>
      <path d="M7.2 10.4 L9.2 9.5 L11.2 10.4 V12.2 H7.2 Z M7.2 12.2 L6.3 17.2 H12.1 L11.2 12.2" fill="none" stroke="#3F0B2F" stroke-width="2" stroke-linejoin="round"/>
    
          
      <circle cx="18" cy="18" r="4" fill="none" stroke="#B08D4B" stroke-width="2"/>
      <line x1="18" y1="18" x2="18" y2="15.6" stroke="#B08D4B" stroke-width="1.6" stroke-linecap="round"/>
      <line x1="18" y1="18" x2="19.8" y2="19.2" stroke="#B08D4B" stroke-width="1.6" stroke-linecap="round"/>
    
        </svg>
        <text x="22" y="50" text-anchor="middle" font-family="ui-sans-serif,system-ui" font-size="10" fill="#6B6258">28</text>
      </g>
      <g transform="translate(240 148)">
        <rect width="48" height="60" rx="8" fill="#FDFBF8" stroke="#E8E0D5"/>
        <svg x="8" y="8" width="32" height="32" viewBox="0 0 24 24">
          
      <path d="M8 3.5 H17.5 Q19 3.5 19 5 V14.5" fill="none" stroke="#3F0B2F" stroke-width="2" stroke-linecap="round"/>
      <path d="M6.5 4.5 H16.8 Q18.2 4.5 18.2 5.9 V15.2" fill="none" stroke="#3F0B2F" stroke-width="2" stroke-linecap="round"/>
      <path d="M4 6.5 H14.5 Q16.2 6.5 16.2 8.2 V18.5 Q16.2 20.2 14.5 20.2 H4 Q2.3 20.2 2.3 18.5 V8.2 Q2.3 6.5 4 6.5 Z" fill="none" stroke="#3F0B2F" stroke-width="2" stroke-linejoin="round"/>
      <path d="M7.2 10.4 L9.2 9.5 L11.2 10.4 V12.2 H7.2 Z M7.2 12.2 L6.3 17.2 H12.1 L11.2 12.2" fill="none" stroke="#3F0B2F" stroke-width="2" stroke-linejoin="round"/>
    
          
      <circle cx="18" cy="18" r="4" fill="none" stroke="#B08D4B" stroke-width="2"/>
      <line x1="18" y1="18" x2="18" y2="15.6" stroke="#B08D4B" stroke-width="1.6" stroke-linecap="round"/>
      <line x1="18" y1="18" x2="19.8" y2="19.2" stroke="#B08D4B" stroke-width="1.6" stroke-linecap="round"/>
    
        </svg>
        <text x="24" y="54" text-anchor="middle" font-family="ui-sans-serif,system-ui" font-size="10" fill="#6B6258">32</text>
      </g>
      <g transform="translate(312 148)">
        <rect width="64" height="76" rx="8" fill="#FDFBF8" stroke="#E8E0D5"/>
        <svg x="8" y="8" width="48" height="48" viewBox="0 0 24 24">
          
      <path d="M8 3.5 H17.5 Q19 3.5 19 5 V14.5" fill="none" stroke="#3F0B2F" stroke-width="2" stroke-linecap="round"/>
      <path d="M6.5 4.5 H16.8 Q18.2 4.5 18.2 5.9 V15.2" fill="none" stroke="#3F0B2F" stroke-width="2" stroke-linecap="round"/>
      <path d="M4 6.5 H14.5 Q16.2 6.5 16.2 8.2 V18.5 Q16.2 20.2 14.5 20.2 H4 Q2.3 20.2 2.3 18.5 V8.2 Q2.3 6.5 4 6.5 Z" fill="none" stroke="#3F0B2F" stroke-width="2" stroke-linejoin="round"/>
      <path d="M7.2 10.4 L9.2 9.5 L11.2 10.4 V12.2 H7.2 Z M7.2 12.2 L6.3 17.2 H12.1 L11.2 12.2" fill="none" stroke="#3F0B2F" stroke-width="2" stroke-linejoin="round"/>
    
          
      <circle cx="18" cy="18" r="4" fill="none" stroke="#B08D4B" stroke-width="2"/>
      <line x1="18" y1="18" x2="18" y2="15.6" stroke="#B08D4B" stroke-width="1.6" stroke-linecap="round"/>
      <line x1="18" y1="18" x2="19.8" y2="19.2" stroke="#B08D4B" stroke-width="1.6" stroke-linecap="round"/>
    
        </svg>
        <text x="32" y="70" text-anchor="middle" font-family="ui-sans-serif,system-ui" font-size="10" fill="#6B6258">48</text>
      </g><text x="24" y="232" font-family="ui-sans-serif,system-ui" font-size="12" fill="#3F0B2F">plum-inverted</text>
      <g transform="translate(24 240)">
        <rect width="36" height="48" rx="8" fill="#3F0B2F" stroke="#E8E0D5"/>
        <svg x="8" y="8" width="20" height="20" viewBox="0 0 24 24">
          
      <path d="M8 3.5 H17.5 Q19 3.5 19 5 V14.5" fill="none" stroke="#FDFBF8" stroke-width="2" stroke-linecap="round"/>
      <path d="M6.5 4.5 H16.8 Q18.2 4.5 18.2 5.9 V15.2" fill="none" stroke="#FDFBF8" stroke-width="2" stroke-linecap="round"/>
      <path d="M4 6.5 H14.5 Q16.2 6.5 16.2 8.2 V18.5 Q16.2 20.2 14.5 20.2 H4 Q2.3 20.2 2.3 18.5 V8.2 Q2.3 6.5 4 6.5 Z" fill="none" stroke="#FDFBF8" stroke-width="2" stroke-linejoin="round"/>
      <path d="M7.2 10.4 L9.2 9.5 L11.2 10.4 V12.2 H7.2 Z M7.2 12.2 L6.3 17.2 H12.1 L11.2 12.2" fill="none" stroke="#FDFBF8" stroke-width="2" stroke-linejoin="round"/>
    
          
      <circle cx="18" cy="18" r="4" fill="none" stroke="#D4B87A" stroke-width="2"/>
      <line x1="18" y1="18" x2="18" y2="15.6" stroke="#D4B87A" stroke-width="1.6" stroke-linecap="round"/>
      <line x1="18" y1="18" x2="19.8" y2="19.2" stroke="#D4B87A" stroke-width="1.6" stroke-linecap="round"/>
    
        </svg>
        <text x="18" y="42" text-anchor="middle" font-family="ui-sans-serif,system-ui" font-size="10" fill="#E7D4A8">20</text>
      </g>
      <g transform="translate(96 240)">
        <rect width="40" height="52" rx="8" fill="#3F0B2F" stroke="#E8E0D5"/>
        <svg x="8" y="8" width="24" height="24" viewBox="0 0 24 24">
          
      <path d="M8 3.5 H17.5 Q19 3.5 19 5 V14.5" fill="none" stroke="#FDFBF8" stroke-width="2" stroke-linecap="round"/>
      <path d="M6.5 4.5 H16.8 Q18.2 4.5 18.2 5.9 V15.2" fill="none" stroke="#FDFBF8" stroke-width="2" stroke-linecap="round"/>
      <path d="M4 6.5 H14.5 Q16.2 6.5 16.2 8.2 V18.5 Q16.2 20.2 14.5 20.2 H4 Q2.3 20.2 2.3 18.5 V8.2 Q2.3 6.5 4 6.5 Z" fill="none" stroke="#FDFBF8" stroke-width="2" stroke-linejoin="round"/>
      <path d="M7.2 10.4 L9.2 9.5 L11.2 10.4 V12.2 H7.2 Z M7.2 12.2 L6.3 17.2 H12.1 L11.2 12.2" fill="none" stroke="#FDFBF8" stroke-width="2" stroke-linejoin="round"/>
    
          
      <circle cx="18" cy="18" r="4" fill="none" stroke="#D4B87A" stroke-width="2"/>
      <line x1="18" y1="18" x2="18" y2="15.6" stroke="#D4B87A" stroke-width="1.6" stroke-linecap="round"/>
      <line x1="18" y1="18" x2="19.8" y2="19.2" stroke="#D4B87A" stroke-width="1.6" stroke-linecap="round"/>
    
        </svg>
        <text x="20" y="46" text-anchor="middle" font-family="ui-sans-serif,system-ui" font-size="10" fill="#E7D4A8">24</text>
      </g>
      <g transform="translate(168 240)">
        <rect width="44" height="56" rx="8" fill="#3F0B2F" stroke="#E8E0D5"/>
        <svg x="8" y="8" width="28" height="28" viewBox="0 0 24 24">
          
      <path d="M8 3.5 H17.5 Q19 3.5 19 5 V14.5" fill="none" stroke="#FDFBF8" stroke-width="2" stroke-linecap="round"/>
      <path d="M6.5 4.5 H16.8 Q18.2 4.5 18.2 5.9 V15.2" fill="none" stroke="#FDFBF8" stroke-width="2" stroke-linecap="round"/>
      <path d="M4 6.5 H14.5 Q16.2 6.5 16.2 8.2 V18.5 Q16.2 20.2 14.5 20.2 H4 Q2.3 20.2 2.3 18.5 V8.2 Q2.3 6.5 4 6.5 Z" fill="none" stroke="#FDFBF8" stroke-width="2" stroke-linejoin="round"/>
      <path d="M7.2 10.4 L9.2 9.5 L11.2 10.4 V12.2 H7.2 Z M7.2 12.2 L6.3 17.2 H12.1 L11.2 12.2" fill="none" stroke="#FDFBF8" stroke-width="2" stroke-linejoin="round"/>
    
          
      <circle cx="18" cy="18" r="4" fill="none" stroke="#D4B87A" stroke-width="2"/>
      <line x1="18" y1="18" x2="18" y2="15.6" stroke="#D4B87A" stroke-width="1.6" stroke-linecap="round"/>
      <line x1="18" y1="18" x2="19.8" y2="19.2" stroke="#D4B87A" stroke-width="1.6" stroke-linecap="round"/>
    
        </svg>
        <text x="22" y="50" text-anchor="middle" font-family="ui-sans-serif,system-ui" font-size="10" fill="#E7D4A8">28</text>
      </g>
      <g transform="translate(240 240)">
        <rect width="48" height="60" rx="8" fill="#3F0B2F" stroke="#E8E0D5"/>
        <svg x="8" y="8" width="32" height="32" viewBox="0 0 24 24">
          
      <path d="M8 3.5 H17.5 Q19 3.5 19 5 V14.5" fill="none" stroke="#FDFBF8" stroke-width="2" stroke-linecap="round"/>
      <path d="M6.5 4.5 H16.8 Q18.2 4.5 18.2 5.9 V15.2" fill="none" stroke="#FDFBF8" stroke-width="2" stroke-linecap="round"/>
      <path d="M4 6.5 H14.5 Q16.2 6.5 16.2 8.2 V18.5 Q16.2 20.2 14.5 20.2 H4 Q2.3 20.2 2.3 18.5 V8.2 Q2.3 6.5 4 6.5 Z" fill="none" stroke="#FDFBF8" stroke-width="2" stroke-linejoin="round"/>
      <path d="M7.2 10.4 L9.2 9.5 L11.2 10.4 V12.2 H7.2 Z M7.2 12.2 L6.3 17.2 H12.1 L11.2 12.2" fill="none" stroke="#FDFBF8" stroke-width="2" stroke-linejoin="round"/>
    
          
      <circle cx="18" cy="18" r="4" fill="none" stroke="#D4B87A" stroke-width="2"/>
      <line x1="18" y1="18" x2="18" y2="15.6" stroke="#D4B87A" stroke-width="1.6" stroke-linecap="round"/>
      <line x1="18" y1="18" x2="19.8" y2="19.2" stroke="#D4B87A" stroke-width="1.6" stroke-linecap="round"/>
    
        </svg>
        <text x="24" y="54" text-anchor="middle" font-family="ui-sans-serif,system-ui" font-size="10" fill="#E7D4A8">32</text>
      </g>
      <g transform="translate(312 240)">
        <rect width="64" height="76" rx="8" fill="#3F0B2F" stroke="#E8E0D5"/>
        <svg x="8" y="8" width="48" height="48" viewBox="0 0 24 24">
          
      <path d="M8 3.5 H17.5 Q19 3.5 19 5 V14.5" fill="none" stroke="#FDFBF8" stroke-width="2" stroke-linecap="round"/>
      <path d="M6.5 4.5 H16.8 Q18.2 4.5 18.2 5.9 V15.2" fill="none" stroke="#FDFBF8" stroke-width="2" stroke-linecap="round"/>
      <path d="M4 6.5 H14.5 Q16.2 6.5 16.2 8.2 V18.5 Q16.2 20.2 14.5 20.2 H4 Q2.3 20.2 2.3 18.5 V8.2 Q2.3 6.5 4 6.5 Z" fill="none" stroke="#FDFBF8" stroke-width="2" stroke-linejoin="round"/>
      <path d="M7.2 10.4 L9.2 9.5 L11.2 10.4 V12.2 H7.2 Z M7.2 12.2 L6.3 17.2 H12.1 L11.2 12.2" fill="none" stroke="#FDFBF8" stroke-width="2" stroke-linejoin="round"/>
    
          
      <circle cx="18" cy="18" r="4" fill="none" stroke="#D4B87A" stroke-width="2"/>
      <line x1="18" y1="18" x2="18" y2="15.6" stroke="#D4B87A" stroke-width="1.6" stroke-linecap="round"/>
      <line x1="18" y1="18" x2="19.8" y2="19.2" stroke="#D4B87A" stroke-width="1.6" stroke-linecap="round"/>
    
        </svg>
        <text x="32" y="70" text-anchor="middle" font-family="ui-sans-serif,system-ui" font-size="10" fill="#E7D4A8">48</text>
      </g>
</svg>
