<?xml version="1.0" encoding="UTF-8"?>
<svg xmlns="http://www.w3.org/2000/svg" width="420" height="348" viewBox="0 0 420 348">
  <rect width="100%" height="100%" fill="#F7F1E8"/>
  
    <text x="24" y="28" font-family="ui-sans-serif,system-ui" font-size="18" font-weight="600" fill="#3F0B2F">style</text>
    <text x="24" y="44" font-family="ui-sans-serif,system-ui" font-size="11" fill="#6B6258">vector evidence · not shipped in app bundle</text>
  <text x="24" y="48" font-family="ui-sans-serif,system-ui" font-size="12" fill="#3F0B2F">cream</text>
      <g transform="translate(24 56)">
        <rect width="36" height="48" rx="8" fill="#F7F1E8" stroke="#E8E0D5"/>
        <svg x="8" y="8" width="20" height="20" viewBox="0 0 24 24">
          
      <path d="M12 3.2 C12 2.4 12.8 2.2 13.3 2.7" fill="none" stroke="#3F0B2F" stroke-width="2" stroke-linecap="round"/>
      <path d="M7.2 6.4 L4.8 8.6 V15.2 H7.8 V12 H16.2 V15.2 H19.2 V8.6 L16.8 6.4 M9.6 6.8 L12 9.6 L14.4 6.8" fill="none" stroke="#3F0B2F" stroke-width="2" stroke-linejoin="round"/>
      <path d="M7.8 15.2 H16.2 L15.4 20 H8.6 Z" fill="none" stroke="#3F0B2F" stroke-width="2" stroke-linejoin="round"/>
    
          
      <circle cx="12" cy="11.6" r="0.7" fill="#B08D4B"/>
      <path d="M3.5 20.5 H7.4 Q8.5 20.5 8.5 19.5 L7.6 18.6 H5 L3.5 19.6" fill="none" stroke="#B08D4B" stroke-width="1.7" stroke-linecap="round"/>
      <path d="M16 18 H20.2 L20.8 20.6 H15.4 Z M17.1 16.8 Q18.1 15.6 19.1 16.8" fill="none" stroke="#B08D4B" stroke-width="1.7" stroke-linecap="round"/>
      <path d="M18.8 4.8 C18.8 3.6 20 3.6 20 4.8 C21.2 4.8 21.2 6 20 6 C20 7.2 18.8 7.2 18.8 6 C17.6 6 17.6 4.8 18.8 4.8 Z" fill="none" stroke="#B08D4B" stroke-width="1.6"/>
    
        </svg>
        <text x="18" y="42" text-anchor="middle" font-family="ui-sans-serif,system-ui" font-size="10" fill="#6B6258">20</text>
      </g>
      <g transform="translate(96 56)">
        <rect width="40" height="52" rx="8" fill="#F7F1E8" stroke="#E8E0D5"/>
        <svg x="8" y="8" width="24" height="24" viewBox="0 0 24 24">
          
      <path d="M12 3.2 C12 2.4 12.8 2.2 13.3 2.7" fill="none" stroke="#3F0B2F" stroke-width="2" stroke-linecap="round"/>
      <path d="M7.2 6.4 L4.8 8.6 V15.2 H7.8 V12 H16.2 V15.2 H19.2 V8.6 L16.8 6.4 M9.6 6.8 L12 9.6 L14.4 6.8" fill="none" stroke="#3F0B2F" stroke-width="2" stroke-linejoin="round"/>
      <path d="M7.8 15.2 H16.2 L15.4 20 H8.6 Z" fill="none" stroke="#3F0B2F" stroke-width="2" stroke-linejoin="round"/>
    
          
      <circle cx="12" cy="11.6" r="0.7" fill="#B08D4B"/>
      <path d="M3.5 20.5 H7.4 Q8.5 20.5 8.5 19.5 L7.6 18.6 H5 L3.5 19.6" fill="none" stroke="#B08D4B" stroke-width="1.7" stroke-linecap="round"/>
      <path d="M16 18 H20.2 L20.8 20.6 H15.4 Z M17.1 16.8 Q18.1 15.6 19.1 16.8" fill="none" stroke="#B08D4B" stroke-width="1.7" stroke-linecap="round"/>
      <path d="M18.8 4.8 C18.8 3.6 20 3.6 20 4.8 C21.2 4.8 21.2 6 20 6 C20 7.2 18.8 7.2 18.8 6 C17.6 6 17.6 4.8 18.8 4.8 Z" fill="none" stroke="#B08D4B" stroke-width="1.6"/>
    
        </svg>
        <text x="20" y="46" text-anchor="middle" font-family="ui-sans-serif,system-ui" font-size="10" fill="#6B6258">24</text>
      </g>
      <g transform="translate(168 56)">
        <rect width="44" height="56" rx="8" fill="#F7F1E8" stroke="#E8E0D5"/>
        <svg x="8" y="8" width="28" height="28" viewBox="0 0 24 24">
          
      <path d="M12 3.2 C12 2.4 12.8 2.2 13.3 2.7" fill="none" stroke="#3F0B2F" stroke-width="2" stroke-linecap="round"/>
      <path d="M7.2 6.4 L4.8 8.6 V15.2 H7.8 V12 H16.2 V15.2 H19.2 V8.6 L16.8 6.4 M9.6 6.8 L12 9.6 L14.4 6.8" fill="none" stroke="#3F0B2F" stroke-width="2" stroke-linejoin="round"/>
      <path d="M7.8 15.2 H16.2 L15.4 20 H8.6 Z" fill="none" stroke="#3F0B2F" stroke-width="2" stroke-linejoin="round"/>
    
          
      <circle cx="12" cy="11.6" r="0.7" fill="#B08D4B"/>
      <path d="M3.5 20.5 H7.4 Q8.5 20.5 8.5 19.5 L7.6 18.6 H5 L3.5 19.6" fill="none" stroke="#B08D4B" stroke-width="1.7" stroke-linecap="round"/>
      <path d="M16 18 H20.2 L20.8 20.6 H15.4 Z M17.1 16.8 Q18.1 15.6 19.1 16.8" fill="none" stroke="#B08D4B" stroke-width="1.7" stroke-linecap="round"/>
      <path d="M18.8 4.8 C18.8 3.6 20 3.6 20 4.8 C21.2 4.8 21.2 6 20 6 C20 7.2 18.8 7.2 18.8 6 C17.6 6 17.6 4.8 18.8 4.8 Z" fill="none" stroke="#B08D4B" stroke-width="1.6"/>
    
        </svg>
        <text x="22" y="50" text-anchor="middle" font-family="ui-sans-serif,system-ui" font-size="10" fill="#6B6258">28</text>
      </g>
      <g transform="translate(240 56)">
        <rect width="48" height="60" rx="8" fill="#F7F1E8" stroke="#E8E0D5"/>
        <svg x="8" y="8" width="32" height="32" viewBox="0 0 24 24">
          
      <path d="M12 3.2 C12 2.4 12.8 2.2 13.3 2.7" fill="none" stroke="#3F0B2F" stroke-width="2" stroke-linecap="round"/>
      <path d="M7.2 6.4 L4.8 8.6 V15.2 H7.8 V12 H16.2 V15.2 H19.2 V8.6 L16.8 6.4 M9.6 6.8 L12 9.6 L14.4 6.8" fill="none" stroke="#3F0B2F" stroke-width="2" stroke-linejoin="round"/>
      <path d="M7.8 15.2 H16.2 L15.4 20 H8.6 Z" fill="none" stroke="#3F0B2F" stroke-width="2" stroke-linejoin="round"/>
    
          
      <circle cx="12" cy="11.6" r="0.7" fill="#B08D4B"/>
      <path d="M3.5 20.5 H7.4 Q8.5 20.5 8.5 19.5 L7.6 18.6 H5 L3.5 19.6" fill="none" stroke="#B08D4B" stroke-width="1.7" stroke-linecap="round"/>
      <path d="M16 18 H20.2 L20.8 20.6 H15.4 Z M17.1 16.8 Q18.1 15.6 19.1 16.8" fill="none" stroke="#B08D4B" stroke-width="1.7" stroke-linecap="round"/>
      <path d="M18.8 4.8 C18.8 3.6 20 3.6 20 4.8 C21.2 4.8 21.2 6 20 6 C20 7.2 18.8 7.2 18.8 6 C17.6 6 17.6 4.8 18.8 4.8 Z" fill="none" stroke="#B08D4B" stroke-width="1.6"/>
    
        </svg>
        <text x="24" y="54" text-anchor="middle" font-family="ui-sans-serif,system-ui" font-size="10" fill="#6B6258">32</text>
      </g>
      <g transform="translate(312 56)">
        <rect width="64" height="76" rx="8" fill="#F7F1E8" stroke="#E8E0D5"/>
        <svg x="8" y="8" width="48" height="48" viewBox="0 0 24 24">
          
      <path d="M12 3.2 C12 2.4 12.8 2.2 13.3 2.7" fill="none" stroke="#3F0B2F" stroke-width="2" stroke-linecap="round"/>
      <path d="M7.2 6.4 L4.8 8.6 V15.2 H7.8 V12 H16.2 V15.2 H19.2 V8.6 L16.8 6.4 M9.6 6.8 L12 9.6 L14.4 6.8" fill="none" stroke="#3F0B2F" stroke-width="2" stroke-linejoin="round"/>
      <path d="M7.8 15.2 H16.2 L15.4 20 H8.6 Z" fill="none" stroke="#3F0B2F" stroke-width="2" stroke-linejoin="round"/>
    
          
      <circle cx="12" cy="11.6" r="0.7" fill="#B08D4B"/>
      <path d="M3.5 20.5 H7.4 Q8.5 20.5 8.5 19.5 L7.6 18.6 H5 L3.5 19.6" fill="none" stroke="#B08D4B" stroke-width="1.7" stroke-linecap="round"/>
      <path d="M16 18 H20.2 L20.8 20.6 H15.4 Z M17.1 16.8 Q18.1 15.6 19.1 16.8" fill="none" stroke="#B08D4B" stroke-width="1.7" stroke-linecap="round"/>
      <path d="M18.8 4.8 C18.8 3.6 20 3.6 20 4.8 C21.2 4.8 21.2 6 20 6 C20 7.2 18.8 7.2 18.8 6 C17.6 6 17.6 4.8 18.8 4.8 Z" fill="none" stroke="#B08D4B" stroke-width="1.6"/>
    
        </svg>
        <text x="32" y="70" text-anchor="middle" font-family="ui-sans-serif,system-ui" font-size="10" fill="#6B6258">48</text>
      </g><text x="24" y="140" font-family="ui-sans-serif,system-ui" font-size="12" fill="#3F0B2F">white</text>
      <g transform="translate(24 148)">
        <rect width="36" height="48" rx="8" fill="#FDFBF8" stroke="#E8E0D5"/>
        <svg x="8" y="8" width="20" height="20" viewBox="0 0 24 24">
          
      <path d="M12 3.2 C12 2.4 12.8 2.2 13.3 2.7" fill="none" stroke="#3F0B2F" stroke-width="2" stroke-linecap="round"/>
      <path d="M7.2 6.4 L4.8 8.6 V15.2 H7.8 V12 H16.2 V15.2 H19.2 V8.6 L16.8 6.4 M9.6 6.8 L12 9.6 L14.4 6.8" fill="none" stroke="#3F0B2F" stroke-width="2" stroke-linejoin="round"/>
      <path d="M7.8 15.2 H16.2 L15.4 20 H8.6 Z" fill="none" stroke="#3F0B2F" stroke-width="2" stroke-linejoin="round"/>
    
          
      <circle cx="12" cy="11.6" r="0.7" fill="#B08D4B"/>
      <path d="M3.5 20.5 H7.4 Q8.5 20.5 8.5 19.5 L7.6 18.6 H5 L3.5 19.6" fill="none" stroke="#B08D4B" stroke-width="1.7" stroke-linecap="round"/>
      <path d="M16 18 H20.2 L20.8 20.6 H15.4 Z M17.1 16.8 Q18.1 15.6 19.1 16.8" fill="none" stroke="#B08D4B" stroke-width="1.7" stroke-linecap="round"/>
      <path d="M18.8 4.8 C18.8 3.6 20 3.6 20 4.8 C21.2 4.8 21.2 6 20 6 C20 7.2 18.8 7.2 18.8 6 C17.6 6 17.6 4.8 18.8 4.8 Z" fill="none" stroke="#B08D4B" stroke-width="1.6"/>
    
        </svg>
        <text x="18" y="42" text-anchor="middle" font-family="ui-sans-serif,system-ui" font-size="10" fill="#6B6258">20</text>
      </g>
      <g transform="translate(96 148)">
        <rect width="40" height="52" rx="8" fill="#FDFBF8" stroke="#E8E0D5"/>
        <svg x="8" y="8" width="24" height="24" viewBox="0 0 24 24">
          
      <path d="M12 3.2 C12 2.4 12.8 2.2 13.3 2.7" fill="none" stroke="#3F0B2F" stroke-width="2" stroke-linecap="round"/>
      <path d="M7.2 6.4 L4.8 8.6 V15.2 H7.8 V12 H16.2 V15.2 H19.2 V8.6 L16.8 6.4 M9.6 6.8 L12 9.6 L14.4 6.8" fill="none" stroke="#3F0B2F" stroke-width="2" stroke-linejoin="round"/>
      <path d="M7.8 15.2 H16.2 L15.4 20 H8.6 Z" fill="none" stroke="#3F0B2F" stroke-width="2" stroke-linejoin="round"/>
    
          
      <circle cx="12" cy="11.6" r="0.7" fill="#B08D4B"/>
      <path d="M3.5 20.5 H7.4 Q8.5 20.5 8.5 19.5 L7.6 18.6 H5 L3.5 19.6" fill="none" stroke="#B08D4B" stroke-width="1.7" stroke-linecap="round"/>
      <path d="M16 18 H20.2 L20.8 20.6 H15.4 Z M17.1 16.8 Q18.1 15.6 19.1 16.8" fill="none" stroke="#B08D4B" stroke-width="1.7" stroke-linecap="round"/>
      <path d="M18.8 4.8 C18.8 3.6 20 3.6 20 4.8 C21.2 4.8 21.2 6 20 6 C20 7.2 18.8 7.2 18.8 6 C17.6 6 17.6 4.8 18.8 4.8 Z" fill="none" stroke="#B08D4B" stroke-width="1.6"/>
    
        </svg>
        <text x="20" y="46" text-anchor="middle" font-family="ui-sans-serif,system-ui" font-size="10" fill="#6B6258">24</text>
      </g>
      <g transform="translate(168 148)">
        <rect width="44" height="56" rx="8" fill="#FDFBF8" stroke="#E8E0D5"/>
        <svg x="8" y="8" width="28" height="28" viewBox="0 0 24 24">
          
      <path d="M12 3.2 C12 2.4 12.8 2.2 13.3 2.7" fill="none" stroke="#3F0B2F" stroke-width="2" stroke-linecap="round"/>
      <path d="M7.2 6.4 L4.8 8.6 V15.2 H7.8 V12 H16.2 V15.2 H19.2 V8.6 L16.8 6.4 M9.6 6.8 L12 9.6 L14.4 6.8" fill="none" stroke="#3F0B2F" stroke-width="2" stroke-linejoin="round"/>
      <path d="M7.8 15.2 H16.2 L15.4 20 H8.6 Z" fill="none" stroke="#3F0B2F" stroke-width="2" stroke-linejoin="round"/>
    
          
      <circle cx="12" cy="11.6" r="0.7" fill="#B08D4B"/>
      <path d="M3.5 20.5 H7.4 Q8.5 20.5 8.5 19.5 L7.6 18.6 H5 L3.5 19.6" fill="none" stroke="#B08D4B" stroke-width="1.7" stroke-linecap="round"/>
      <path d="M16 18 H20.2 L20.8 20.6 H15.4 Z M17.1 16.8 Q18.1 15.6 19.1 16.8" fill="none" stroke="#B08D4B" stroke-width="1.7" stroke-linecap="round"/>
      <path d="M18.8 4.8 C18.8 3.6 20 3.6 20 4.8 C21.2 4.8 21.2 6 20 6 C20 7.2 18.8 7.2 18.8 6 C17.6 6 17.6 4.8 18.8 4.8 Z" fill="none" stroke="#B08D4B" stroke-width="1.6"/>
    
        </svg>
        <text x="22" y="50" text-anchor="middle" font-family="ui-sans-serif,system-ui" font-size="10" fill="#6B6258">28</text>
      </g>
      <g transform="translate(240 148)">
        <rect width="48" height="60" rx="8" fill="#FDFBF8" stroke="#E8E0D5"/>
        <svg x="8" y="8" width="32" height="32" viewBox="0 0 24 24">
          
      <path d="M12 3.2 C12 2.4 12.8 2.2 13.3 2.7" fill="none" stroke="#3F0B2F" stroke-width="2" stroke-linecap="round"/>
      <path d="M7.2 6.4 L4.8 8.6 V15.2 H7.8 V12 H16.2 V15.2 H19.2 V8.6 L16.8 6.4 M9.6 6.8 L12 9.6 L14.4 6.8" fill="none" stroke="#3F0B2F" stroke-width="2" stroke-linejoin="round"/>
      <path d="M7.8 15.2 H16.2 L15.4 20 H8.6 Z" fill="none" stroke="#3F0B2F" stroke-width="2" stroke-linejoin="round"/>
    
          
      <circle cx="12" cy="11.6" r="0.7" fill="#B08D4B"/>
      <path d="M3.5 20.5 H7.4 Q8.5 20.5 8.5 19.5 L7.6 18.6 H5 L3.5 19.6" fill="none" stroke="#B08D4B" stroke-width="1.7" stroke-linecap="round"/>
      <path d="M16 18 H20.2 L20.8 20.6 H15.4 Z M17.1 16.8 Q18.1 15.6 19.1 16.8" fill="none" stroke="#B08D4B" stroke-width="1.7" stroke-linecap="round"/>
      <path d="M18.8 4.8 C18.8 3.6 20 3.6 20 4.8 C21.2 4.8 21.2 6 20 6 C20 7.2 18.8 7.2 18.8 6 C17.6 6 17.6 4.8 18.8 4.8 Z" fill="none" stroke="#B08D4B" stroke-width="1.6"/>
    
        </svg>
        <text x="24" y="54" text-anchor="middle" font-family="ui-sans-serif,system-ui" font-size="10" fill="#6B6258">32</text>
      </g>
      <g transform="translate(312 148)">
        <rect width="64" height="76" rx="8" fill="#FDFBF8" stroke="#E8E0D5"/>
        <svg x="8" y="8" width="48" height="48" viewBox="0 0 24 24">
          
      <path d="M12 3.2 C12 2.4 12.8 2.2 13.3 2.7" fill="none" stroke="#3F0B2F" stroke-width="2" stroke-linecap="round"/>
      <path d="M7.2 6.4 L4.8 8.6 V15.2 H7.8 V12 H16.2 V15.2 H19.2 V8.6 L16.8 6.4 M9.6 6.8 L12 9.6 L14.4 6.8" fill="none" stroke="#3F0B2F" stroke-width="2" stroke-linejoin="round"/>
      <path d="M7.8 15.2 H16.2 L15.4 20 H8.6 Z" fill="none" stroke="#3F0B2F" stroke-width="2" stroke-linejoin="round"/>
    
          
      <circle cx="12" cy="11.6" r="0.7" fill="#B08D4B"/>
      <path d="M3.5 20.5 H7.4 Q8.5 20.5 8.5 19.5 L7.6 18.6 H5 L3.5 19.6" fill="none" stroke="#B08D4B" stroke-width="1.7" stroke-linecap="round"/>
      <path d="M16 18 H20.2 L20.8 20.6 H15.4 Z M17.1 16.8 Q18.1 15.6 19.1 16.8" fill="none" stroke="#B08D4B" stroke-width="1.7" stroke-linecap="round"/>
      <path d="M18.8 4.8 C18.8 3.6 20 3.6 20 4.8 C21.2 4.8 21.2 6 20 6 C20 7.2 18.8 7.2 18.8 6 C17.6 6 17.6 4.8 18.8 4.8 Z" fill="none" stroke="#B08D4B" stroke-width="1.6"/>
    
        </svg>
        <text x="32" y="70" text-anchor="middle" font-family="ui-sans-serif,system-ui" font-size="10" fill="#6B6258">48</text>
      </g><text x="24" y="232" font-family="ui-sans-serif,system-ui" font-size="12" fill="#3F0B2F">plum-inverted</text>
      <g transform="translate(24 240)">
        <rect width="36" height="48" rx="8" fill="#3F0B2F" stroke="#E8E0D5"/>
        <svg x="8" y="8" width="20" height="20" viewBox="0 0 24 24">
          
      <path d="M12 3.2 C12 2.4 12.8 2.2 13.3 2.7" fill="none" stroke="#FDFBF8" stroke-width="2" stroke-linecap="round"/>
      <path d="M7.2 6.4 L4.8 8.6 V15.2 H7.8 V12 H16.2 V15.2 H19.2 V8.6 L16.8 6.4 M9.6 6.8 L12 9.6 L14.4 6.8" fill="none" stroke="#FDFBF8" stroke-width="2" stroke-linejoin="round"/>
      <path d="M7.8 15.2 H16.2 L15.4 20 H8.6 Z" fill="none" stroke="#FDFBF8" stroke-width="2" stroke-linejoin="round"/>
    
          
      <circle cx="12" cy="11.6" r="0.7" fill="#D4B87A"/>
      <path d="M3.5 20.5 H7.4 Q8.5 20.5 8.5 19.5 L7.6 18.6 H5 L3.5 19.6" fill="none" stroke="#D4B87A" stroke-width="1.7" stroke-linecap="round"/>
      <path d="M16 18 H20.2 L20.8 20.6 H15.4 Z M17.1 16.8 Q18.1 15.6 19.1 16.8" fill="none" stroke="#D4B87A" stroke-width="1.7" stroke-linecap="round"/>
      <path d="M18.8 4.8 C18.8 3.6 20 3.6 20 4.8 C21.2 4.8 21.2 6 20 6 C20 7.2 18.8 7.2 18.8 6 C17.6 6 17.6 4.8 18.8 4.8 Z" fill="none" stroke="#D4B87A" stroke-width="1.6"/>
    
        </svg>
        <text x="18" y="42" text-anchor="middle" font-family="ui-sans-serif,system-ui" font-size="10" fill="#E7D4A8">20</text>
      </g>
      <g transform="translate(96 240)">
        <rect width="40" height="52" rx="8" fill="#3F0B2F" stroke="#E8E0D5"/>
        <svg x="8" y="8" width="24" height="24" viewBox="0 0 24 24">
          
      <path d="M12 3.2 C12 2.4 12.8 2.2 13.3 2.7" fill="none" stroke="#FDFBF8" stroke-width="2" stroke-linecap="round"/>
      <path d="M7.2 6.4 L4.8 8.6 V15.2 H7.8 V12 H16.2 V15.2 H19.2 V8.6 L16.8 6.4 M9.6 6.8 L12 9.6 L14.4 6.8" fill="none" stroke="#FDFBF8" stroke-width="2" stroke-linejoin="round"/>
      <path d="M7.8 15.2 H16.2 L15.4 20 H8.6 Z" fill="none" stroke="#FDFBF8" stroke-width="2" stroke-linejoin="round"/>
    
          
      <circle cx="12" cy="11.6" r="0.7" fill="#D4B87A"/>
      <path d="M3.5 20.5 H7.4 Q8.5 20.5 8.5 19.5 L7.6 18.6 H5 L3.5 19.6" fill="none" stroke="#D4B87A" stroke-width="1.7" stroke-linecap="round"/>
      <path d="M16 18 H20.2 L20.8 20.6 H15.4 Z M17.1 16.8 Q18.1 15.6 19.1 16.8" fill="none" stroke="#D4B87A" stroke-width="1.7" stroke-linecap="round"/>
      <path d="M18.8 4.8 C18.8 3.6 20 3.6 20 4.8 C21.2 4.8 21.2 6 20 6 C20 7.2 18.8 7.2 18.8 6 C17.6 6 17.6 4.8 18.8 4.8 Z" fill="none" stroke="#D4B87A" stroke-width="1.6"/>
    
        </svg>
        <text x="20" y="46" text-anchor="middle" font-family="ui-sans-serif,system-ui" font-size="10" fill="#E7D4A8">24</text>
      </g>
      <g transform="translate(168 240)">
        <rect width="44" height="56" rx="8" fill="#3F0B2F" stroke="#E8E0D5"/>
        <svg x="8" y="8" width="28" height="28" viewBox="0 0 24 24">
          
      <path d="M12 3.2 C12 2.4 12.8 2.2 13.3 2.7" fill="none" stroke="#FDFBF8" stroke-width="2" stroke-linecap="round"/>
      <path d="M7.2 6.4 L4.8 8.6 V15.2 H7.8 V12 H16.2 V15.2 H19.2 V8.6 L16.8 6.4 M9.6 6.8 L12 9.6 L14.4 6.8" fill="none" stroke="#FDFBF8" stroke-width="2" stroke-linejoin="round"/>
      <path d="M7.8 15.2 H16.2 L15.4 20 H8.6 Z" fill="none" stroke="#FDFBF8" stroke-width="2" stroke-linejoin="round"/>
    
          
      <circle cx="12" cy="11.6" r="0.7" fill="#D4B87A"/>
      <path d="M3.5 20.5 H7.4 Q8.5 20.5 8.5 19.5 L7.6 18.6 H5 L3.5 19.6" fill="none" stroke="#D4B87A" stroke-width="1.7" stroke-linecap="round"/>
      <path d="M16 18 H20.2 L20.8 20.6 H15.4 Z M17.1 16.8 Q18.1 15.6 19.1 16.8" fill="none" stroke="#D4B87A" stroke-width="1.7" stroke-linecap="round"/>
      <path d="M18.8 4.8 C18.8 3.6 20 3.6 20 4.8 C21.2 4.8 21.2 6 20 6 C20 7.2 18.8 7.2 18.8 6 C17.6 6 17.6 4.8 18.8 4.8 Z" fill="none" stroke="#D4B87A" stroke-width="1.6"/>
    
        </svg>
        <text x="22" y="50" text-anchor="middle" font-family="ui-sans-serif,system-ui" font-size="10" fill="#E7D4A8">28</text>
      </g>
      <g transform="translate(240 240)">
        <rect width="48" height="60" rx="8" fill="#3F0B2F" stroke="#E8E0D5"/>
        <svg x="8" y="8" width="32" height="32" viewBox="0 0 24 24">
          
      <path d="M12 3.2 C12 2.4 12.8 2.2 13.3 2.7" fill="none" stroke="#FDFBF8" stroke-width="2" stroke-linecap="round"/>
      <path d="M7.2 6.4 L4.8 8.6 V15.2 H7.8 V12 H16.2 V15.2 H19.2 V8.6 L16.8 6.4 M9.6 6.8 L12 9.6 L14.4 6.8" fill="none" stroke="#FDFBF8" stroke-width="2" stroke-linejoin="round"/>
      <path d="M7.8 15.2 H16.2 L15.4 20 H8.6 Z" fill="none" stroke="#FDFBF8" stroke-width="2" stroke-linejoin="round"/>
    
          
      <circle cx="12" cy="11.6" r="0.7" fill="#D4B87A"/>
      <path d="M3.5 20.5 H7.4 Q8.5 20.5 8.5 19.5 L7.6 18.6 H5 L3.5 19.6" fill="none" stroke="#D4B87A" stroke-width="1.7" stroke-linecap="round"/>
      <path d="M16 18 H20.2 L20.8 20.6 H15.4 Z M17.1 16.8 Q18.1 15.6 19.1 16.8" fill="none" stroke="#D4B87A" stroke-width="1.7" stroke-linecap="round"/>
      <path d="M18.8 4.8 C18.8 3.6 20 3.6 20 4.8 C21.2 4.8 21.2 6 20 6 C20 7.2 18.8 7.2 18.8 6 C17.6 6 17.6 4.8 18.8 4.8 Z" fill="none" stroke="#D4B87A" stroke-width="1.6"/>
    
        </svg>
        <text x="24" y="54" text-anchor="middle" font-family="ui-sans-serif,system-ui" font-size="10" fill="#E7D4A8">32</text>
      </g>
      <g transform="translate(312 240)">
        <rect width="64" height="76" rx="8" fill="#3F0B2F" stroke="#E8E0D5"/>
        <svg x="8" y="8" width="48" height="48" viewBox="0 0 24 24">
          
      <path d="M12 3.2 C12 2.4 12.8 2.2 13.3 2.7" fill="none" stroke="#FDFBF8" stroke-width="2" stroke-linecap="round"/>
      <path d="M7.2 6.4 L4.8 8.6 V15.2 H7.8 V12 H16.2 V15.2 H19.2 V8.6 L16.8 6.4 M9.6 6.8 L12 9.6 L14.4 6.8" fill="none" stroke="#FDFBF8" stroke-width="2" stroke-linejoin="round"/>
      <path d="M7.8 15.2 H16.2 L15.4 20 H8.6 Z" fill="none" stroke="#FDFBF8" stroke-width="2" stroke-linejoin="round"/>
    
          
      <circle cx="12" cy="11.6" r="0.7" fill="#D4B87A"/>
      <path d="M3.5 20.5 H7.4 Q8.5 20.5 8.5 19.5 L7.6 18.6 H5 L3.5 19.6" fill="none" stroke="#D4B87A" stroke-width="1.7" stroke-linecap="round"/>
      <path d="M16 18 H20.2 L20.8 20.6 H15.4 Z M17.1 16.8 Q18.1 15.6 19.1 16.8" fill="none" stroke="#D4B87A" stroke-width="1.7" stroke-linecap="round"/>
      <path d="M18.8 4.8 C18.8 3.6 20 3.6 20 4.8 C21.2 4.8 21.2 6 20 6 C20 7.2 18.8 7.2 18.8 6 C17.6 6 17.6 4.8 18.8 4.8 Z" fill="none" stroke="#D4B87A" stroke-width="1.6"/>
    
        </svg>
        <text x="32" y="70" text-anchor="middle" font-family="ui-sans-serif,system-ui" font-size="10" fill="#E7D4A8">48</text>
      </g>
</svg>
